HIERARCHY
ROOT Hips
{
	OFFSET 0.00000 0.00000 0.00000
	CHANNELS 6 Xposition Yposition Zposition Zrotation Yrotation Xrotation 
	JOINT LHipJoint
	{
		OFFSET 0 0 0
		CHANNELS 3 Zrotation Yrotation Xrotation
		JOINT LeftHip
		{
			OFFSET 1.36337 -1.57426 1.11036
			CHANNELS 3 Zrotation Yrotation Xrotation
			JOINT LeftKnee
			{
				OFFSET 2.38468 -6.55187 0.00000
				CHANNELS 3 Zrotation Yrotation Xrotation
				JOINT LeftAnkle
				{
					OFFSET 2.37166 -6.51609 0.00000
					CHANNELS 3 Zrotation Yrotation Xrotation
					JOINT LeftToe
					{
						OFFSET 0.29078 -0.79891 2.01393
						CHANNELS 3 Zrotation Yrotation Xrotation
						End Site
						{
							OFFSET 0.00000 -0.00000 1.07924
						}
					}
				}
			}
		}
	}
	JOINT RHipJoint
	{
		OFFSET 0 0 0
		CHANNELS 3 Zrotation Yrotation Xrotation
		JOINT RightHip
		{
			OFFSET -1.36349 -1.57426 1.11036
			CHANNELS 3 Zrotation Yrotation Xrotation
			JOINT RightKnee
			{
				OFFSET -2.29562 -6.30717 0.00000
				CHANNELS 3 Zrotation Yrotation Xrotation
				JOINT RightAnkle
				{
					OFFSET -2.40985 -6.62100 0.00000
					CHANNELS 3 Zrotation Yrotation Xrotation
					JOINT RightToe
					{
						OFFSET -0.23197 -0.63733 1.92232
						CHANNELS 3 Zrotation Yrotation Xrotation
						End Site
						{
							OFFSET -0.00000 -0.00000 1.01562
						}
					}
				}
			}
		}
	}
	JOINT lowerback
	{
		OFFSET 0 0 0
		CHANNELS 3 Zrotation Yrotation Xrotation
		JOINT Chest
		{
			OFFSET -0.08565 2.03602 -0.24562
			CHANNELS 3 Zrotation Yrotation Xrotation
			JOINT Chest2
			{
				OFFSET -0.00036 2.05693 0.00216
				CHANNELS 3 Zrotation Yrotation Xrotation
				JOINT lowerneck
				{
					OFFSET 0 0 0
					CHANNELS 3 Zrotation Yrotation Xrotation
					JOINT Neck
					{
						OFFSET -0.03664 1.69515 0.31789
						CHANNELS 3 Zrotation Yrotation Xrotation
						JOINT Head
						{
							OFFSET 0.00932 1.70181 -0.46013
							CHANNELS 3 Zrotation Yrotation Xrotation
							End Site
							{
								OFFSET 0.01243 1.77620 -0.19377
							}
						}
					}
				}
				JOINT LeftCollar
				{
					OFFSET 0 0 0
					CHANNELS 3 Zrotation Yrotation Xrotation
					JOINT LeftShoulder
					{
						OFFSET 3.74344 0.81315 -0.36647
CHANNELS 3 Zrotation Xrotation Yrotation
						JOINT LeftElbow
						{
OFFSET 0 -4.971850 -0.000000
CHANNELS 3 Zrotation Xrotation Yrotation
							JOINT LeftWrist
							{
OFFSET 0 -3.358110 0.000000
CHANNELS 3 Zrotation Xrotation Yrotation
								JOINT lhand
								{
									OFFSET 0 0 0
CHANNELS 3 Zrotation Xrotation Yrotation
									JOINT LFingers
									{
OFFSET 0 -0.622780 0.000000
CHANNELS 3 Zrotation Xrotation Yrotation
										End Site
										{
OFFSET 0 -0.502100 0.000000
										}
									}
								}
								JOINT LThumb
								{
OFFSET 0 0.000000 0.000000
CHANNELS 3 Zrotation Xrotation Yrotation
									End Site
									{
OFFSET 0 -0.509760 0.509760
									}
								}
							}
						}
					}
				}
				JOINT RightCollar
				{
					OFFSET 0 0 0
					CHANNELS 3 Zrotation Yrotation Xrotation
					JOINT RightShoulder
					{
						OFFSET -3.75385 0.50666 -0.06525
CHANNELS 3 Zrotation Xrotation Yrotation
						JOINT RightElbow
						{
OFFSET 0 -4.964930 -0.000000
CHANNELS 3 Zrotation Xrotation Yrotation
							JOINT RightWrist
							{
OFFSET 0 -3.349290 0.000000
CHANNELS 3 Zrotation Xrotation Yrotation
								JOINT rhand
								{
									OFFSET 0 0 0
CHANNELS 3 Zrotation Xrotation Yrotation
									JOINT RFingers
									{
OFFSET 0 -0.638040 0.000000
CHANNELS 3 Zrotation Xrotation Yrotation
										End Site
										{
OFFSET 0 -0.514410 0.000000
										}
									}
								}
								JOINT RThumb
								{
OFFSET 0 0.000000 0.000000
CHANNELS 3 Zrotation Xrotation Yrotation
									End Site
									{
OFFSET 0 -0.522260 0.522260
									}
								}
							}
						}
					}
				}
			}
		}
	}
}
MOTION
Frames: 12
Frame Time: 0.008333333333333333
-27.802200 16.600600 -0.113000 -164.166000 67.983400 -148.205000 0.000000 0.000000 0.000000 -5.754700 -12.618100 -24.977200 2.898400 10.528800 30.706600 1.341800 6.310200 -24.981900 0.396900 -4.044900 -11.202900 0.000000 0.000000 0.000000 21.706800 -8.974600 -7.880600 0.000000 -0.000000 0.000000 -0.331300 -21.800000 -32.887400 -1.962000 -8.786500 25.129600 6.765600 3.365000 -20.932300 1.165700 2.938300 -1.522700 -1.679600 1.753900 10.338300 15.278500 15.503600 -1.607200 -9.813000 23.261900 19.632800 -3.126900 11.656700 9.387100 0.000000 0.000000 0.000000 1.152000 1.530300 -16.784300 14.844600 -23.929200 3.162700 24.899600 -9.084800 11.034600 0.000000 0.000000 0.000000 -7.125000 0.000000 0.000000 -1.546800 17.848900 -0.998600 0.000000 0.000000 0.000000 -0.718400 -2.676000 24.022400 -11.974100 -19.765900 -2.093500 -8.391800 2.345800 28.181700 0.000000 0.000000 0.000000 7.125000 0.000000 -0.000000 24.141100 56.739600 -7.237100
-27.799019 16.614759 -0.101229 -163.842561 68.105011 -147.221432 0.000000 0.000000 0.000000 -5.493290 -12.470048 -25.803363 2.899653 10.530743 30.713289 1.296966 6.742867 -24.912062 0.355458 -3.819811 -10.571490 0.000000 0.000000 0.000000 21.930107 -8.507201 -8.569881 0.000000 0.000000 0.000000 -0.260324 -22.020428 -32.730735 -1.908840 -8.673379 24.778942 7.115042 4.606111 -21.342694 -0.025233 4.667354 -2.589029 -2.675268 2.597535 9.641178 17.629901 14.154819 -0.500899 -9.393987 21.355347 19.832826 -3.689205 11.021695 9.224634 0.000000 0.000000 0.000000 3.454946 2.808808 -21.054480 14.897252 -24.002702 3.184072 17.762850 -9.495552 14.752033 0.000000 0.000000 0.000000 -7.125000 0.000000 0.000000 -6.617614 14.598767 -4.783319 0.000000 0.000000 0.000000 1.270874 -0.777480 20.056833 -12.108490 -19.967022 -2.139273 -8.933257 3.166345 28.974535 0.000000 0.000000 0.000000 7.125000 0.000000 0.000000 24.175627 57.570396 -7.742883
-27.801425 16.629079 -0.097150 -164.127549 68.300849 -146.875434 0.000000 0.000000 0.000000 -5.538115 -12.511188 -26.395721 2.901757 10.534238 30.724689 1.303383 6.548376 -24.836450 0.141540 -2.407549 -6.634209 0.000000 0.000000 0.000000 21.833878 -8.134987 -9.211051 0.000000 0.000000 0.000000 -0.227992 -22.114248 -32.651314 -1.893322 -8.640306 24.676556 6.350720 3.198416 -22.153509 1.081534 2.727292 -1.465109 -1.549032 1.651419 11.041354 15.175795 15.943512 -3.573806 -9.912929 23.621212 19.984136 -2.891590 11.682125 9.911694 0.000000 0.000000 0.000000 1.033213 0.338018 -17.050624 14.834104 -23.914472 3.158368 18.370295 -10.076902 14.365241 0.000000 0.000000 0.000000 -7.125000 0.000000 0.000000 -6.199839 14.938804 -4.418569 0.000000 0.000000 0.000000 -0.789037 -3.842334 24.222656 -11.877145 -19.620167 -2.060848 -9.138587 2.611356 28.852950 0.000000 0.000000 0.000000 7.125000 0.000000 0.000000 23.879194 57.503873 -7.600741
-27.804443 16.640602 -0.095238 -164.551479 68.416369 -146.674806 0.000000 0.000000 0.000000 -5.545442 -12.710059 -26.961240 2.889638 10.514196 30.658316 1.366091 6.185915 -25.090579 0.009476 -0.627143 -1.723290 0.000000 0.000000 0.000000 21.725006 -7.864461 -9.864189 0.000000 0.000000 0.000000 -0.198767 -22.221851 -32.609171 -1.885307 -8.622981 24.622981 6.133355 3.118370 -22.739358 1.030981 2.663864 -1.704040 -1.485792 1.615912 11.076665 15.315144 15.836253 -3.328756 -10.166609 23.556035 19.918337 -3.024595 11.658613 9.887675 0.000000 0.000000 0.000000 0.980479 0.479583 -17.396291 14.822612 -23.898453 3.153747 20.669917 -10.378710 11.653224 0.000000 0.000000 0.000000 -7.125000 0.000000 0.000000 -4.537013 17.573364 -2.966145 0.000000 0.000000 0.000000 -0.775590 -3.767748 24.027788 -11.855989 -19.588238 -2.053698 -9.494271 3.146059 29.819749 0.000000 0.000000 0.000000 7.125000 0.000000 0.000000 24.249031 58.455911 -8.292178
-27.804964 16.644700 -0.089601 -165.095860 68.506873 -146.770204 0.000000 0.000000 0.000000 -5.669266 -12.896381 -27.340858 2.857247 10.460328 30.480675 1.307019 6.672345 -24.944079 0.024974 -1.019659 -2.802985 0.000000 0.000000 0.000000 21.578171 -7.713301 -10.335083 0.000000 0.000000 0.000000 -0.166679 -22.304381 -32.516905 -1.884964 -8.622242 24.620750 5.912097 3.039915 -23.168283 0.900320 2.621439 -1.910378 -1.509112 1.590808 11.067854 15.459197 15.783305 -3.169645 -10.107860 23.485447 19.948123 -3.049210 11.648836 9.870688 0.000000 0.000000 0.000000 1.019857 0.750925 -17.755006 14.978156 -24.115719 3.217037 21.490621 -10.470281 10.431907 0.000000 0.000000 0.000000 -7.125000 0.000000 0.000000 -3.926321 18.803117 -2.459213 0.000000 0.000000 0.000000 -0.530030 -3.533241 23.810751 -11.966206 -19.753909 -2.090823 -9.530522 3.204956 29.894162 0.000000 0.000000 0.000000 7.125000 0.000000 0.000000 24.270370 58.530977 -8.344609
-27.812649 16.657975 -0.083520 -165.462287 68.860315 -146.395392 0.000000 0.000000 0.000000 -5.712635 -13.181348 -27.928923 2.817747 10.394075 30.262410 1.253331 7.191421 -24.870706 0.031175 -1.135720 -3.122431 0.000000 0.000000 0.000000 21.403236 -7.159854 -11.115061 0.000000 0.000000 0.000000 0.011773 -22.862102 -32.139492 -1.749255 -8.322800 23.699076 5.733170 3.024513 -23.692942 0.798955 2.645327 -2.117453 -1.498105 1.599947 11.114452 15.270656 15.858041 -3.435470 -9.981216 23.555099 20.071675 -2.946655 11.662617 9.930604 0.000000 0.000000 0.000000 0.892009 0.691603 -17.608444 14.916508 -24.029624 3.191876 21.900560 -10.226475 10.174320 0.000000 0.000000 0.000000 -7.125000 0.000000 0.000000 -3.626685 19.051572 -2.264477 0.000000 0.000000 0.000000 -0.520741 -3.654773 24.174752 -12.089023 -19.937950 -2.132537 -9.247067 2.772488 30.019894 0.000000 0.000000 0.000000 7.125000 0.000000 0.000000 24.656156 58.581971 -8.518200
-27.814024 16.667292 -0.071393 -165.335696 69.095938 -145.577813 0.000000 0.000000 0.000000 -5.527466 -13.197000 -28.627232 2.793657 10.353368 30.128631 1.239712 7.365899 -24.882665 0.018067 -0.867563 -2.384527 0.000000 0.000000 0.000000 21.461498 -6.618459 -11.846942 0.000000 0.000000 0.000000 0.143893 -23.249598 -31.830537 -1.638123 -8.067660 22.919883 5.576482 2.933041 -24.460900 0.822699 2.530257 -2.232742 -1.394276 1.546424 11.380212 15.276727 15.960715 -3.584535 -9.997574 23.700721 20.185771 -2.908929 11.717718 10.021447 0.000000 0.000000 0.000000 0.805225 0.603739 -17.031016 14.794871 -23.859620 3.142461 19.402593 -10.099268 13.238543 0.000000 0.000000 0.000000 -7.125000 0.000000 0.000000 -5.461331 16.016796 -3.759800 0.000000 0.000000 0.000000 -0.509879 -3.940349 24.884284 -12.149952 -20.029128 -2.153351 -9.130477 2.119448 29.754060 0.000000 0.000000 0.000000 7.125000 0.000000 0.000000 24.566595 58.316924 -8.326265
-27.820711 16.675119 -0.072885 -165.293860 69.518852 -145.110195 0.000000 0.000000 0.000000 -5.578479 -13.260679 -28.936989 2.773851 10.319621 30.018078 1.277108 7.502836 -25.266446 0.005318 -0.466564 -1.282067 0.000000 0.000000 0.000000 21.263801 -6.075704 -12.258149 0.000000 0.000000 0.000000 0.218791 -23.482510 -31.676058 -1.607461 -7.995469 22.700348 5.486061 2.894534 -24.874690 0.835321 2.481309 -2.264776 -1.330526 1.523069 11.558188 15.341551 16.018908 -3.588980 -10.369314 23.826873 19.972443 -3.016606 11.749808 10.023396 0.000000 0.000000 0.000000 0.741399 0.570518 -17.127539 14.723173 -23.758982 3.113509 19.519561 -10.466158 13.564654 0.000000 0.000000 0.000000 -7.125000 0.000000 0.000000 -5.390451 15.664126 -3.751934 0.000000 0.000000 0.000000 -0.512622 -4.191870 25.438829 -12.221734 -20.136313 -2.177997 -9.113884 1.733305 29.114891 0.000000 0.000000 0.000000 7.125000 0.000000 0.000000 24.098142 57.735862 -7.813544
-27.823595 16.674473 -0.058259 -165.109900 69.950689 -145.086641 0.000000 0.000000 0.000000 -5.680780 -13.163461 -28.582500 2.746012 10.272070 29.862515 1.298971 7.685273 -25.558984 0.002339 -0.210790 -0.579237 0.000000 0.000000 0.000000 21.123118 -5.723824 -12.030612 0.000000 0.000000 0.000000 0.284844 -23.686813 -31.540377 -1.565615 -7.895636 22.397559 5.226775 2.817585 -24.665003 0.930970 2.442701 -2.184976 -1.094448 1.486771 11.519682 15.228993 16.031462 -3.523051 -10.651173 23.863691 19.625431 -3.101755 11.743386 9.917126 0.000000 0.000000 0.000000 0.659716 0.689691 -17.324328 14.779030 -23.837367 3.136087 20.066913 -10.393376 13.359397 0.000000 0.000000 0.000000 -7.125000 0.000000 0.000000 -5.007800 15.827029 -3.465733 0.000000 0.000000 0.000000 -0.559591 -4.306845 26.027417 -12.323757 -20.288374 -2.213317 -9.463770 1.560126 29.575899 0.000000 0.000000 0.000000 7.125000 0.000000 0.000000 24.093445 58.228744 -8.101785
-27.824614 16.674971 -0.043066 -164.970843 70.383768 -144.943886 0.000000 0.000000 0.000000 -5.756050 -13.091226 -28.452349 2.730576 10.245576 29.775580 1.293087 8.066091 -25.780087 0.007748 -0.569004 -1.563439 0.000000 0.000000 0.000000 20.974701 -5.320378 -11.967249 0.000000 0.000000 0.000000 0.300653 -23.740097 -31.514215 -1.548823 -7.855197 22.275168 4.993854 2.773530 -24.495482 0.900861 2.468770 -2.286837 -0.996413 1.485525 11.304896 15.197527 16.008663 -3.430465 -10.465530 23.803771 19.658980 -3.058066 11.732490 9.874296 0.000000 0.000000 0.000000 0.800440 0.843533 -17.221291 14.694374 -23.718620 3.101937 19.842043 -10.114779 13.174575 0.000000 0.000000 0.000000 -7.125000 0.000000 0.000000 -5.156680 16.042858 -3.545366 0.000000 0.000000 0.000000 -0.415851 -3.949639 26.281065 -12.555707 -20.632808 -2.294382 -9.379045 1.160328 29.958123 0.000000 0.000000 0.000000 7.125000 0.000000 0.000000 24.474133 58.555389 -8.434661
-27.830371 16.674710 -0.038146 -164.731317 70.858676 -144.675755 0.000000 0.000000 0.000000 -5.883006 -12.913385 -28.396328 2.716735 10.221740 29.697783 1.285387 8.244782 -25.848253 0.005951 -0.498445 -1.369548 0.000000 0.000000 0.000000 20.748919 -4.885037 -11.893957 0.000000 0.000000 0.000000 0.153926 -23.301123 -31.838635 -1.655003 -8.106530 23.038397 4.890429 2.783249 -24.367985 0.823884 2.528677 -2.356463 -1.010649 1.508163 11.159636 15.486646 15.940473 -3.556322 -10.531347 23.739251 19.973873 -3.104580 11.706988 10.047251 0.000000 0.000000 0.000000 1.040905 0.821755 -17.187545 14.593453 -23.576701 3.061492 20.167767 -10.072219 12.893446 0.000000 0.000000 0.000000 -7.125000 0.000000 0.000000 -4.923163 16.308100 -3.355171 0.000000 0.000000 0.000000 -0.340316 -3.734425 26.672636 -12.623188 -20.732609 -2.318194 -9.284406 0.626366 29.352146 0.000000 0.000000 0.000000 7.125000 0.000000 0.000000 24.103766 57.987369 -7.963351
-27.840260 16.678121 -0.037660 -165.185287 71.431918 -145.212963 0.000000 0.000000 0.000000 -6.288760 -13.107664 -27.940837 2.674325 10.148156 29.457780 1.304259 8.684179 -26.306627 0.000677 -0.006259 -0.017102 0.000000 0.000000 0.000000 20.263315 -4.535615 -11.736062 0.000000 0.000000 0.000000 0.268822 -23.630073 -31.562255 -1.529504 -7.808000 22.132435 4.518829 2.750403 -24.182188 0.764272 2.595381 -2.339519 -0.850470 1.519958 11.070273 15.436402 15.935475 -3.211876 -10.548944 23.740865 19.707913 -3.142733 11.723616 9.886437 0.000000 0.000000 0.000000 1.075901 0.945413 -17.378740 14.719443 -23.753841 3.112098 19.852002 -10.036467 12.646534 0.000000 0.000000 0.000000 -7.125000 0.000000 0.000000 -5.134459 16.597011 -3.468077 0.000000 0.000000 0.000000 -0.411957 -3.560614 26.785561 -12.715784 -20.869358 -2.351061 -9.099224 0.481024 30.093903 0.000000 0.000000 0.000000 7.125000 0.000000 0.000000 24.866490 58.615547 -8.618623
